<?xml version="1.0" encoding="UTF-8" standalone="no"?>
<!-- Created with Inkscape (http://www.inkscape.org/) -->

<svg
   xmlns:dc="http://purl.org/dc/elements/1.1/"
   xmlns:cc="http://creativecommons.org/ns#"
   xmlns:rdf="http://www.w3.org/1999/02/22-rdf-syntax-ns#"
   xmlns:svg="http://www.w3.org/2000/svg"
   xmlns="http://www.w3.org/2000/svg"
   xmlns:sodipodi="http://sodipodi.sourceforge.net/DTD/sodipodi-0.dtd"
   xmlns:inkscape="http://www.inkscape.org/namespaces/inkscape"
   width="100"
   height="100"
   viewBox="0 0 26.458333 26.458333"
   version="1.1"
   id="svg841"
   inkscape:version="0.92.4 (5da689c313, 2019-01-14)"
   sodipodi:docname="figma.svg">
  <defs
     id="defs835" />
  <sodipodi:namedview
     id="base"
     pagecolor="#ffffff"
     bordercolor="#666666"
     borderopacity="1.0"
     inkscape:pageopacity="0.0"
     inkscape:pageshadow="2"
     inkscape:zoom="2.8"
     inkscape:cx="9.2574725"
     inkscape:cy="100.03048"
     inkscape:document-units="mm"
     inkscape:current-layer="layer1"
     showgrid="false"
     units="px"
     inkscape:window-width="1920"
     inkscape:window-height="1001"
     inkscape:window-x="-9"
     inkscape:window-y="-9"
     inkscape:window-maximized="1" />
  <metadata
     id="metadata838">
    <rdf:RDF>
      <cc:Work
         rdf:about="">
        <dc:format>image/svg+xml</dc:format>
        <dc:type
           rdf:resource="http://purl.org/dc/dcmitype/StillImage" />
        <dc:title></dc:title>
      </cc:Work>
    </rdf:RDF>
  </metadata>
  <g
     inkscape:label="Layer 1"
     inkscape:groupmode="layer"
     id="layer1"
     transform="translate(0,-270.54167)">
    <path
       d="m 9.2591765,297 c 2.1906605,0 3.9675605,-1.9741 3.9675605,-4.40788 v -4.40789 H 9.2591765 c -2.19066,0 -3.96753,1.97408 -3.96753,4.40789 0,2.43378 1.77687,4.40788 3.96753,4.40788 z"
       id="path2"
       inkscape:connector-curvature="0"
       style="fill:#0acf83;stroke-width:0.28464755" />
    <path
       d="m 5.2916465,283.77082 c 0,-2.43378 1.77687,-4.40789 3.96753,-4.40789 h 3.9675605 v 8.82118 H 9.2591765 c -2.19066,-0.005 -3.96753,-1.97948 -3.96753,-4.41329 z"
       id="path4"
       inkscape:connector-curvature="0"
       style="fill:#a259ff;stroke-width:0.28464755" />
    <path
       d="m 5.2916465,274.94955 c 0,-2.4338 1.77687,-4.40788 3.96753,-4.40788 h 3.9675605 v 8.82117 H 9.2591765 c -2.19066,0 -3.96753,-1.97948 -3.96753,-4.41329 z"
       id="path6"
       inkscape:connector-curvature="0"
       style="fill:#f24e1e;stroke-width:0.28464755" />
    <path
       d="m 13.231607,270.54167 h 3.96755 c 2.19066,0 3.96753,1.97408 3.96753,4.40788 0,2.43381 -1.77687,4.40788 -3.96753,4.40788 h -3.96755 z"
       id="path8"
       inkscape:connector-curvature="0"
       style="fill:#ff7262;stroke-width:0.28464755" />
    <path
       d="m 21.166687,283.77082 c 0,2.43381 -1.77687,4.40791 -3.96753,4.40791 -2.19066,0 -3.96755,-1.9741 -3.96755,-4.40791 0,-2.43378 1.77689,-4.40789 3.96755,-4.40789 2.19066,0 3.96753,1.97411 3.96753,4.40789 z"
       id="path10"
       inkscape:connector-curvature="0"
       style="fill:#1abcfe;stroke-width:0.28464755" />
  </g>
</svg>
